<?xml version="1.0" standalone="no"?>
<!DOCTYPE svg PUBLIC "-//W3C//DTD SVG 20010904//EN"
 "http://www.w3.org/TR/2001/REC-SVG-20010904/DTD/svg10.dtd">
<svg version="1.0" xmlns="http://www.w3.org/2000/svg"
 width="505.000000pt" height="505.000000pt" viewBox="0 0 505.000000 505.000000"
 preserveAspectRatio="xMidYMid meet">
<metadata>
Created by potrace 1.14, written by Peter Selinger 2001-2017
</metadata>
<g transform="translate(0.000000,505.000000) scale(0.100000,-0.100000)"
fill="#000000" stroke="none">
<path d="M1533 3856 c-58 -27 -109 -89 -129 -154 -17 -61 -17 -168 1 -226 17
-54 61 -116 83 -116 7 0 12 -5 12 -12 0 -6 3 -9 6 -6 3 4 16 1 29 -6 18 -9
203 -13 757 -14 968 -3 1758 -11 1786 -17 12 -3 32 -7 43 -10 37 -8 99 -44
126 -73 79 -85 98 -214 58 -392 -4 -14 -7 -30 -8 -35 -5 -21 -47 -95 -69 -120
-75 -87 -227 -153 -394 -171 -92 -10 -306 -11 -335 -2 l-26 9 13 57 c8 31 16
75 19 97 3 22 8 47 11 56 3 10 7 30 9 45 2 16 11 70 20 119 8 50 15 93 15 97
0 7 -673 7 -702 0 -18 -4 -26 -30 -43 -127 -3 -16 -8 -37 -10 -45 -2 -8 -6
-26 -9 -40 -2 -14 -17 -83 -31 -155 -15 -71 -28 -139 -30 -150 -2 -11 -11 -56
-19 -100 -9 -44 -18 -90 -21 -103 -2 -13 -6 -31 -9 -40 -3 -9 -7 -33 -10 -52
-8 -50 -16 -93 -21 -110 -2 -8 -7 -28 -10 -45 -2 -16 -7 -41 -10 -55 -5 -22
-25 -125 -40 -205 -3 -16 -8 -41 -10 -55 -10 -49 -15 -75 -20 -100 -3 -14 -7
-36 -10 -50 -3 -14 -7 -36 -10 -50 -3 -14 -7 -36 -10 -50 -3 -14 -7 -36 -10
-50 -3 -14 -7 -36 -10 -50 -3 -14 -7 -38 -10 -55 -3 -16 -8 -41 -10 -55 -3
-14 -7 -35 -10 -48 l-4 -22 369 0 368 0 6 28 c3 15 8 41 11 57 3 17 7 41 10
55 3 14 7 37 10 53 3 15 7 39 10 55 5 26 9 47 20 102 2 14 7 39 10 55 3 17 7
41 10 55 3 14 7 36 10 50 3 14 7 36 10 50 2 14 7 39 10 55 3 17 13 62 22 101
l15 72 150 -3 c82 -1 150 -4 151 -6 2 -2 80 -177 173 -389 l170 -385 433 0
c238 0 434 2 436 5 6 10 -208 392 -389 698 -37 63 -66 115 -64 117 1 2 28 5
58 8 67 6 167 39 223 73 50 31 177 160 177 180 0 8 4 14 8 14 4 0 23 33 41 72
46 101 49 107 62 158 15 53 13 46 22 90 4 19 10 46 13 60 10 37 12 329 3 370
-4 19 -12 64 -18 100 -7 36 -21 94 -32 130 -20 61 -87 219 -99 230 -3 3 -19
25 -35 50 -32 47 -151 170 -165 170 -5 0 -15 6 -22 13 -28 28 -155 90 -208
102 -3 1 -25 7 -50 14 -138 40 -169 41 -1655 47 l-1170 5 -52 -25z"/>
<path d="M455 2965 c-52 -28 -61 -36 -92 -80 -69 -100 -37 -342 51 -372 34
-11 33 -11 399 -18 631 -12 747 -14 1102 -16 332 -2 353 -1 396 18 77 34 109
98 115 228 6 126 -14 180 -76 211 -42 21 -59 23 -235 24 -104 1 -293 3 -420 5
-126 2 -444 6 -705 10 -261 4 -478 8 -481 11 -4 2 -28 -8 -54 -21z"/>
<path d="M159 2055 c-63 -13 -85 -24 -117 -58 -30 -32 -36 -57 -35 -157 0 -67
4 -94 21 -125 31 -59 54 -85 80 -90 32 -6 926 -17 1512 -19 457 -1 499 0 548
17 52 18 91 56 100 95 35 156 11 271 -64 307 -45 21 -87 23 -704 31 -911 11
-1284 11 -1341 -1z"/>
</g>
</svg>
